# xmcd
#
# Track frame offsets:
#	150
#	21639
#	39901
#	52936
#	67342
#	83094
#	103517
#	124906
#	141711
#	162528
#	180751
#	198776
#	224162
#	242189
#	267349
#	291387
#	314406
#
# Disc length: 4453
#
# Revision: 3
# Processed by: cddbd v1.5.1PL0 Copyright (c) Steve Scherf et al.
# Submitted via: EasyCDDAExtractor 8.0.2.1
# Normalized: r2:DSETVAR1
#
DISCID=0d116311
DTITLE=Various Artist - BLACK VELVET CD1
DYEAR=2005
DGENRE=Blues
TTITLE0=Alannah Myles - Black Velvet
TTITLE1=Wilson Picket - Hey Jude
TTITLE2=Dionne Warnig - Walk On By
TTITLE3=Otis Redding - I've Been Loving You Too Long
TTITLE4=Timmy Thomas - Why Can't We Live Together
TTITLE5=Dranatics - In The Rain
TTITLE6=Roberta Flack - Killink Me Softly With This Song
TTITLE7=Gladys Knight and The Pips - Best Thing That Ever Happened To Me
TTITLE8=Manhattans - It Feels So Good To Be Loved So Bad
TTITLE9=Ray Parker JR - A Woman Needs Love
TTITLE10=Gil Scott - Heron
TTITLE11=Isley Brothers - For The Love Of You(Parts 1&2)
TTITLE12=Gregory Abbott - Shake You Down
TTITLE13=Regin Belle - Baby Come To Me
TTITLE14=George Benson - Shiver
TTITLE15=Randy Crawford - Give Me The Night
TTITLE16=Anita Baker - Sweet Love
EXTD=
EXTT0=
EXTT1=
EXTT2=
EXTT3=
EXTT4=
EXTT5=
EXTT6=
EXTT7=
EXTT8=
EXTT9=
EXTT10=
EXTT11=
EXTT12=
EXTT13=
EXTT14=
EXTT15=
EXTT16=
PLAYORDER=
